<svg width="40" height="40" viewBox="0 0 40 40" fill="none" xmlns="http://www.w3.org/2000/svg">
<g id="virus">
<path id="Path" opacity="0.6" d="M38.5375 20.0399C38.0628 20.133 37.5804 20.0356 37.1789 19.7658C36.8464 19.5422 36.6024 19.2223 36.4755 18.8492L34.4124 19.7507C34.4166 19.8919 34.4188 20.0312 34.4188 20.1668C34.4188 21.3805 34.2669 22.5856 33.9672 23.753L34.8927 24.3812C35.4793 23.8671 36.3318 23.7134 37.0782 24.0379C38.0826 24.4745 38.5636 25.6374 38.1733 26.6853L37.7376 27.8552C37.3427 28.9159 36.2065 29.4747 35.1512 29.1282C34.6172 28.9528 34.1874 28.5784 33.9412 28.0742C33.8011 27.7874 33.7305 27.4798 33.7303 27.1707L32.6804 27.024C32.5366 27.2878 32.3794 27.5552 32.2116 27.8215C32.038 28.097 31.674 28.1794 31.3989 28.0059C31.1235 27.8322 31.041 27.4682 31.2146 27.1927C31.4126 26.8783 31.5941 26.5633 31.754 26.2563C31.9145 25.9484 32.253 25.7738 32.5956 25.8216L34.4889 26.0861C34.6646 26.1106 34.8199 26.213 34.9117 26.3649C35.0035 26.5168 35.022 26.702 34.9621 26.8691C34.8808 27.0958 34.8943 27.3399 35 27.5564C35.1054 27.7722 35.2897 27.9325 35.5189 28.0078C35.9634 28.1537 36.463 27.9005 36.6333 27.4433L37.0689 26.2735C37.2376 25.8208 37.031 25.303 36.6085 25.1192C36.204 24.9434 35.7277 25.0941 35.5001 25.4696C35.4164 25.6077 35.2796 25.7054 35.1219 25.7399C34.9643 25.7744 34.7992 25.7424 34.6655 25.6518L33.0952 24.586C32.8039 24.3884 32.6712 24.027 32.7652 23.6868C33.0804 22.5448 33.2402 21.3604 33.2402 20.1667C33.2402 19.9711 33.2353 19.7667 33.2257 19.5591C33.2101 19.2209 33.4075 18.9028 33.7169 18.7677L36.661 17.4813C36.8248 17.4097 37.0121 17.4164 37.1703 17.4993C37.3286 17.5822 37.4407 17.7325 37.4751 17.908L37.5684 18.3836C37.6009 18.5494 37.6961 18.6926 37.8362 18.7869C37.9763 18.8811 38.1448 18.9152 38.3106 18.8826C38.6527 18.8154 38.8765 18.4823 38.8094 18.14L38.3266 15.6781C38.293 15.5067 38.1934 15.3606 38.0462 15.2666C37.8991 15.1726 37.7242 15.1442 37.5538 15.1858C37.2317 15.265 37.0246 15.6102 37.0923 15.9554L37.1052 16.0212C37.1399 16.1988 37.0913 16.3825 36.9732 16.5196C36.8551 16.6567 36.6793 16.7325 36.5 16.7236L33.3153 16.5783C32.9782 16.5629 32.68 16.3367 32.5735 16.015C32.2785 15.1237 31.8869 14.2625 31.4095 13.4555C31.2317 13.155 31.2629 12.7741 31.487 12.5076L32.8959 10.8329C33.0006 10.7085 33.152 10.6329 33.3142 10.6239C33.4764 10.6151 33.6353 10.6734 33.7529 10.7854C34.0687 11.086 34.5488 11.1117 34.8945 10.847C35.0816 10.7038 35.2017 10.4962 35.2328 10.2626C35.2639 10.029 35.2021 9.7972 35.059 9.61003L34.6508 9.07617C34.3575 8.69278 33.8097 8.5942 33.4297 8.85622C33.1067 9.07893 32.9685 9.494 33.0938 9.8656C33.1914 10.155 33.0519 10.471 32.7723 10.5938L30.7428 11.4857C30.42 11.6278 30.0433 11.5475 29.8051 11.286C28.9001 10.2917 27.8551 9.44455 26.6989 8.76809C26.4069 8.59751 26.2475 8.259 26.302 7.92592L26.8216 4.75597C26.8505 4.57957 26.9578 4.4258 27.1135 4.33791C27.2691 4.25002 27.456 4.2376 27.622 4.30395L28.0716 4.48397C28.2337 4.54883 28.4105 4.54458 28.5693 4.47195C28.7281 4.39947 28.8471 4.26811 28.9046 4.10208C29.0132 3.78849 28.8358 3.42696 28.5093 3.2963L26.2134 2.37733C26.0513 2.3124 25.8746 2.31672 25.7156 2.38928C25.5569 2.46176 25.4379 2.59312 25.3804 2.75907C25.2718 3.07265 25.4491 3.43419 25.7754 3.56484L25.8375 3.58968C26.0055 3.6569 26.1332 3.79753 26.1841 3.97119C26.235 4.14484 26.2034 4.33225 26.0983 4.47957L24.246 7.07628C24.0501 7.35119 23.6982 7.47878 23.371 7.39388C22.2911 7.11378 21.1747 6.97173 20.0527 6.97173C19.1644 6.97173 18.2738 7.0615 17.4059 7.23854C17.0746 7.30607 16.7303 7.1604 16.5486 6.87575L14.6946 3.96639C14.5985 3.81569 14.576 3.62946 14.6335 3.46013C14.6907 3.2908 14.8218 3.15669 14.9897 3.09545L15.0553 3.07147C15.2804 2.9894 15.4601 2.82447 15.5612 2.60711C15.6623 2.38983 15.6728 2.14605 15.5907 1.92083C15.5671 1.85613 15.5551 1.78774 15.5551 1.71887C15.5551 1.49585 15.4893 1.32692 15.3699 1.24335C15.2505 1.15971 15.0695 1.15562 14.86 1.23219L12.5824 2.06312C12.1263 2.22946 11.8836 2.73831 12.0411 3.19741C12.1163 3.41627 12.2781 3.59424 12.4969 3.69864C12.7279 3.80893 12.9966 3.82261 13.2336 3.73614L13.2858 3.71711C13.4556 3.65501 13.6446 3.67459 13.7983 3.77002C13.952 3.86545 14.0534 4.02621 14.0733 4.20608L14.4507 7.61572C14.4879 7.95124 14.3109 8.28086 14.0105 8.43604C12.6328 9.14795 11.4001 10.0896 10.3471 11.2344C10.1153 11.4866 9.74729 11.5689 9.43129 11.4391L6.65193 10.2987C6.4977 10.2354 6.37749 10.1098 6.32108 9.95286C6.26459 9.79595 6.27724 9.62245 6.35573 9.47537C6.53211 9.1452 6.4288 8.74074 6.11546 8.53462C5.79247 8.32197 5.34023 8.42142 5.10767 8.7563L4.39576 9.78164C4.16744 10.1105 4.22181 10.5519 4.5195 10.7866C4.67342 10.908 4.86442 10.9611 5.05691 10.9364C5.2509 10.9114 5.42249 10.8118 5.54026 10.656C5.6468 10.515 5.81101 10.4292 5.98763 10.4224C6.16363 10.4156 6.33451 10.4884 6.45158 10.6209L8.40919 12.8348C8.63893 13.0946 8.6801 13.4735 8.51157 13.778C8.30108 14.1579 8.10529 14.5579 7.92977 14.967C7.80123 15.2661 7.45482 15.4045 7.15571 15.276C6.85668 15.1475 6.7184 14.8008 6.84678 14.5016C7.00415 14.1352 7.17645 13.7751 7.36046 13.4284L5.95833 11.8425C5.73284 11.9809 5.47843 12.0711 5.20745 12.106C4.69777 12.1715 4.19478 12.0319 3.79007 11.7129C3.00368 11.0928 2.84466 9.949 3.42803 9.10896L4.13994 8.0837C4.73399 7.22808 5.91064 6.98855 6.76318 7.54953C7.40077 7.96908 7.70805 8.70088 7.6008 9.41373L9.64987 10.2546C10.7022 9.14897 11.9122 8.22488 13.2526 7.50315L12.9722 4.9705C12.6358 4.98009 12.2973 4.91013 11.9895 4.7632C11.4829 4.52139 11.1054 4.10153 10.9265 3.58072C10.5618 2.51812 11.1236 1.34044 12.1788 0.955473L14.4563 0.124544C14.6849 0.0411377 14.9145 -5.72205e-05 15.1357 -5.72205e-05C15.4688 -5.72205e-05 15.7828 0.0934925 16.0457 0.277445C16.458 0.566187 16.7045 1.04996 16.7312 1.61574C16.8841 2.10879 16.849 2.63384 16.6297 3.10512C16.4891 3.4073 16.2829 3.66562 16.0277 3.86498L17.4113 6.0364C19.3983 5.66653 21.4703 5.72093 23.4284 6.19308L24.773 4.30804C24.2437 3.82882 24.0239 3.0747 24.2668 2.37316C24.4308 1.89968 24.7715 1.52455 25.2261 1.31677C25.6744 1.11199 26.1936 1.09957 26.6511 1.28258L28.9471 2.20155C29.8644 2.56875 30.335 3.57318 30.0182 4.48814C29.8542 4.96162 29.5136 5.33684 29.059 5.54461C28.686 5.71504 28.2636 5.75238 27.8687 5.65443L27.5046 7.87593C28.6075 8.54672 29.614 9.36193 30.502 10.3036L31.8731 9.70106C31.8348 8.9963 32.1614 8.29862 32.761 7.8852C33.6653 7.26173 34.9065 7.47021 35.5868 8.35955L35.995 8.8934C36.3295 9.33072 36.4737 9.8722 36.4011 10.4181C36.3285 10.964 36.0479 11.4489 35.6107 11.7836C34.973 12.2718 34.1405 12.3376 33.455 11.9996L32.5508 13.0744C32.9734 13.8188 33.3298 14.603 33.613 15.4115L35.9243 15.517C36.0389 14.8121 36.5523 14.2178 37.2729 14.0408C37.7593 13.9212 38.2592 14.0037 38.6804 14.2727C39.0957 14.5381 39.3883 14.9675 39.4831 15.4512L39.9659 17.9131C40.1581 18.8935 39.5174 19.8475 38.5375 20.0399Z" fill="white"/>
<path id="Path_2" opacity="0.6" d="M3.77992 18.8436L5.97894 18.328C6.02681 18.0177 6.08603 17.7025 6.15564 17.3882C6.21689 17.1113 6.45907 16.923 6.72754 16.9231C6.77009 16.9231 6.81335 16.9278 6.85661 16.9377C7.17271 17.0098 7.37147 17.3283 7.30045 17.6492C7.21964 18.0147 7.15401 18.3808 7.10551 18.7373C7.05928 19.0766 6.80787 19.3563 6.48004 19.433L3.36557 20.1631C3.19246 20.2037 3.01004 20.1623 2.87041 20.0506C2.7307 19.9388 2.64849 19.7687 2.64693 19.5882L2.64372 19.2181C2.64004 18.8038 2.30501 18.4667 1.89676 18.4667C1.70238 18.4667 1.51988 18.5439 1.38307 18.684C1.24618 18.8242 1.17179 19.01 1.17351 19.2073L1.19385 21.5039C1.19565 21.7144 1.2838 21.9205 1.43564 22.0691C1.57832 22.2088 1.75862 22.2838 1.9491 22.2781C2.34538 22.2674 2.66609 21.9311 2.6639 21.5283C2.66288 21.3459 2.74432 21.1731 2.88488 21.0594C3.02545 20.9456 3.20975 20.9035 3.3845 20.9453L6.47706 21.6813C6.80466 21.7593 7.05498 22.0396 7.10012 22.379C7.32829 24.0966 7.87734 25.7295 8.73194 27.2323C8.90434 27.5358 8.87039 27.9187 8.64706 28.1851L7.17232 29.9432C7.05701 30.0805 6.8875 30.1577 6.70868 30.1524C6.53088 30.1472 6.36497 30.0604 6.25765 29.9164L6.12983 29.7449C6.03432 29.6168 5.89508 29.5362 5.7377 29.5178C5.58086 29.4996 5.42668 29.5464 5.30442 29.6498C5.07334 29.8452 5.04221 30.2147 5.23503 30.4735L6.21736 31.7918C6.40807 32.0477 6.76837 32.0986 7.02048 31.9049C7.25656 31.7237 7.31703 31.3833 7.15824 31.13C7.06609 30.9828 7.04207 30.8022 7.09253 30.6355C7.14298 30.4689 7.26282 30.333 7.42036 30.2639L9.48257 29.3586C9.80227 29.2181 10.1755 29.2996 10.4112 29.5616C11.3501 30.6055 12.4383 31.4871 13.6461 32.182C13.9387 32.3505 14.1017 32.69 14.052 33.0271L13.5769 36.2355C13.5505 36.4141 13.4456 36.5708 13.2919 36.6616C13.138 36.7525 12.9519 36.7676 12.7861 36.7028L12.3361 36.5271C12.1739 36.4639 11.998 36.4705 11.8409 36.5459C11.6838 36.6213 11.5671 36.7556 11.5121 36.924C11.4081 37.2422 11.5894 37.6048 11.9163 37.7324L14.2142 38.6295C14.3764 38.6929 14.5522 38.6861 14.7094 38.6107C14.8665 38.5354 14.9832 38.4011 15.0382 38.2327C15.1421 37.9145 14.9609 37.5518 14.634 37.4242L14.5719 37.3999C14.4038 37.3342 14.2748 37.1939 14.2218 37.0192C14.1689 36.8446 14.1979 36.6549 14.3006 36.5047L16.1096 33.8577C16.3009 33.5778 16.6491 33.4441 16.976 33.5254C17.9956 33.7788 19.0502 33.9073 20.1118 33.9073H20.1121C20.4583 33.9073 20.7686 34.1288 20.8843 34.4581L21.4832 36.1593C21.537 36.3119 21.5271 36.4802 21.4559 36.6252C21.3847 36.7702 21.2583 36.8797 21.1059 36.928C20.6697 37.0665 20.3923 37.5013 20.4461 37.9618C20.4748 38.2068 20.6016 38.4298 20.8031 38.5898C21.0147 38.7578 21.2854 38.8351 21.5463 38.8017L22.3689 38.6965C22.9021 38.6284 23.2904 38.1497 23.2347 37.6295C23.1916 37.2279 22.9146 36.9022 22.529 36.7998C22.2466 36.7247 22.0615 36.4503 22.0947 36.1559L22.3029 34.3124C22.3425 33.9606 22.5986 33.673 22.9404 33.5967C24.2508 33.3045 25.5065 32.8093 26.6723 32.1251C26.9643 31.9536 27.3358 31.9831 27.597 32.1983L30.079 34.2432C30.2171 34.357 30.2968 34.5282 30.2959 34.7088C30.2949 34.8893 30.2133 35.0597 30.0741 35.1719L29.6965 35.4763C29.5604 35.5859 29.4767 35.7431 29.4609 35.919C29.4451 36.0946 29.4997 36.2648 29.6148 36.3984C29.832 36.651 30.2318 36.6766 30.5062 36.4556L32.4345 34.9017C32.5706 34.792 32.6543 34.6348 32.6701 34.459C32.6858 34.2835 32.6312 34.1132 32.5161 33.9795C32.2988 33.7271 31.8988 33.7015 31.6248 33.9223L31.5728 33.9642C31.4317 34.078 31.2469 34.1196 31.072 34.0772C30.8967 34.0348 30.7505 33.9131 30.6751 33.747L29.3457 30.8178C29.2051 30.508 29.2689 30.1355 29.5041 29.8909C29.5875 29.8042 29.6699 29.7144 29.7679 29.6064C29.9873 29.3644 30.3585 29.3488 30.5969 29.5716C30.8353 29.7944 30.8506 30.1711 30.6312 30.4131C30.5897 30.4589 30.5507 30.5018 30.5128 30.5428L31.4783 32.6702C32.1538 32.446 32.9138 32.6311 33.3998 33.1959C33.7279 33.577 33.8837 34.064 33.8385 34.567C33.794 35.0629 33.5481 35.5248 33.164 35.8343L31.2358 37.3881C30.4653 38.0089 29.3652 37.9185 28.7311 37.1818C28.403 36.8006 28.2472 36.3136 28.2924 35.8106C28.3295 35.3979 28.5059 35.0087 28.7856 34.7113L27.047 33.2786C25.9112 33.9193 24.7 34.3973 23.4403 34.7023L23.3114 35.8446C23.9077 36.1794 24.326 36.7958 24.4016 37.5005C24.5262 38.6627 23.6802 39.7293 22.5159 39.8782L21.6933 39.9833C21.1249 40.0559 20.5369 39.8899 20.0808 39.5279C19.6311 39.171 19.3472 38.6647 19.2814 38.1022C19.1857 37.2844 19.5574 36.5029 20.2029 36.061L19.8632 35.0962C18.8746 35.079 17.8921 34.9592 16.9355 34.7392L15.6226 36.6604C16.1557 37.1371 16.3846 37.8957 16.1522 38.6075C15.9952 39.0879 15.6611 39.4714 15.2113 39.6874C14.7677 39.9002 14.251 39.9198 13.7932 39.7411L11.4953 38.8441C10.5771 38.4857 10.0953 37.4776 10.3986 36.5492C10.5555 36.0688 10.8896 35.6853 11.3394 35.4693C11.7085 35.2921 12.1282 35.2487 12.5229 35.3423L12.8558 33.0939C11.6974 32.4007 10.6436 31.5474 9.71755 30.5532L8.39299 31.1346C8.50063 31.7712 8.26103 32.446 7.72849 32.8549C7.35638 33.1406 6.89713 33.2623 6.43482 33.197C5.97268 33.1319 5.56318 32.888 5.28181 32.5103L4.2994 31.192C3.72453 30.4207 3.83616 29.3413 4.55347 28.7348C4.92464 28.4209 5.39265 28.2787 5.87169 28.3346C6.17371 28.3698 6.46064 28.4857 6.70329 28.6653L7.59198 27.6058C6.77079 26.1022 6.22659 24.4824 5.97205 22.7844L3.70193 22.2441C3.42635 22.9422 2.75957 23.4478 1.98015 23.4687C1.47271 23.4816 0.991874 23.2895 0.620781 22.9261C0.244057 22.5571 0.0251871 22.0427 0.0204155 21.5147L7.73573e-05 19.218C-0.00445961 18.7005 0.190708 18.2131 0.549519 17.8455C0.908331 17.478 1.38682 17.2756 1.89669 17.2756C2.82363 17.2755 3.60391 17.9516 3.77992 18.8436Z" fill="white"/>
<path id="Path_3" opacity="0.6" d="M17.3484 22.1217C17.6245 22.2735 17.7297 22.6288 17.5834 22.9153C17.4371 23.2016 17.0947 23.3111 16.8183 23.1591C15.4661 22.4155 13.9248 22.612 13.154 23.6268C12.7215 24.196 12.5727 24.9503 12.735 25.7507C12.9053 26.5899 13.392 27.3736 14.1057 27.9571C14.8192 28.5407 15.6673 28.8483 16.4935 28.8245C17.2816 28.8014 17.9537 28.4752 18.3863 27.9059C19.0358 27.0511 19.0275 25.7751 18.3653 24.6552C18.2019 24.3788 18.2852 24.0174 18.5517 23.8478C18.818 23.6783 19.1664 23.7648 19.3299 24.0411C20.2429 25.585 20.2213 27.3873 19.275 28.6328C18.6312 29.4802 17.6547 29.9651 16.5255 29.9981C15.4343 30.031 14.3264 29.6327 13.4051 28.8792C12.4836 28.1256 11.8524 27.1004 11.6276 25.9925C11.3949 24.8456 11.6214 23.7472 12.2652 22.8999C12.9431 22.0077 14.0045 21.5384 15.1465 21.5385C15.874 21.5385 16.6341 21.7288 17.3484 22.1217Z" fill="white"/>
<path id="Shape" opacity="0.6" fill-rule="evenodd" clip-rule="evenodd" d="M25.7693 30C27.2538 30 28.4615 28.9648 28.4615 27.6923C28.4615 26.4198 27.2538 25.3846 25.7693 25.3846C24.2847 25.3846 23.0769 26.4198 23.0769 27.6923C23.0769 28.9648 24.2847 30 25.7693 30ZM25.7693 28.7725C24.9751 28.7725 24.329 28.2879 24.329 27.6923C24.329 27.0967 24.9751 26.6122 25.7693 26.6122C26.5635 26.6122 27.2096 27.0967 27.2096 27.6923C27.2096 28.2879 26.5635 28.7725 25.7693 28.7725Z" fill="white"/>
<path id="Shape_2" opacity="0.6" fill-rule="evenodd" clip-rule="evenodd" d="M18.8462 20C20.3307 20 21.5384 18.7922 21.5384 17.3077C21.5384 15.8231 20.3307 14.6154 18.8462 14.6154C17.3615 14.6154 16.1538 15.8231 16.1538 17.3077C16.1538 18.7922 17.3615 20 18.8462 20ZM18.8462 18.8314C18.006 18.8314 17.3224 18.1479 17.3224 17.3077C17.3224 16.4675 18.006 15.784 18.8462 15.784C19.6864 15.784 20.3699 16.4675 20.3699 17.3077C20.3699 18.1479 19.6863 18.8314 18.8462 18.8314Z" fill="white"/>
<path id="Shape_3" opacity="0.6" fill-rule="evenodd" clip-rule="evenodd" d="M27.3076 20.7693C28.368 20.7693 29.2307 19.7341 29.2307 18.4616C29.2307 17.1891 28.368 16.154 27.3076 16.1539C26.2472 16.1539 25.3845 17.1891 25.3845 18.4616C25.3845 19.7341 26.2472 20.7693 27.3076 20.7693ZM27.3075 19.4813C26.839 19.4813 26.4578 19.0239 26.4578 18.4616C26.4578 17.8993 26.8391 17.442 27.3075 17.4419C27.7761 17.4419 28.1572 17.8993 28.1572 18.4616C28.1572 19.0239 27.7761 19.4813 27.3075 19.4813Z" fill="white"/>
<path id="Shape_4" opacity="0.6" fill-rule="evenodd" clip-rule="evenodd" d="M23.8462 10.3847C23.8462 9.32425 22.9834 8.46159 21.9231 8.46159C20.8627 8.46159 20 9.32425 20 10.3847C20 11.4451 20.8627 12.3077 21.9231 12.3077C22.9835 12.3077 23.8462 11.445 23.8462 10.3847ZM22.7509 10.3847C22.7509 10.8411 22.3796 11.2124 21.9231 11.2124C21.4667 11.2124 21.0953 10.8411 21.0953 10.3847C21.0953 9.92821 21.4667 9.5569 21.9231 9.5569C22.3796 9.5569 22.7509 9.92821 22.7509 10.3847Z" fill="white"/>
<path id="Shape_5" opacity="0.6" fill-rule="evenodd" clip-rule="evenodd" d="M14.6154 14.6154C14.6154 13.3429 13.5801 12.3077 12.3077 12.3077C11.0352 12.3077 10 13.3429 10 14.6154C10 15.8879 11.0352 16.9231 12.3077 16.9231C13.5801 16.9231 14.6154 15.8879 14.6154 14.6154ZM13.3391 14.6154C13.3391 15.1841 12.8765 15.6468 12.3077 15.6468C11.739 15.6468 11.2763 15.1841 11.2763 14.6154C11.2763 14.0467 11.739 13.584 12.3077 13.584C12.8764 13.584 13.3391 14.0467 13.3391 14.6154Z" fill="white"/>
<path id="Path_4" opacity="0.6" d="M24.6154 21.5385C24.6154 21.9633 24.3766 22.3077 24.0819 22.3077H23.6104C23.3157 22.3077 23.0769 21.9633 23.0769 21.5385C23.0769 21.1137 23.3157 20.7693 23.6104 20.7693H24.0819C24.3766 20.7693 24.6154 21.1137 24.6154 21.5385Z" fill="white"/>
<path id="Path_5" opacity="0.6" d="M16.6828 10.7693H17.1633C17.4555 10.7693 17.6923 11.1137 17.6923 11.5385C17.6923 11.9633 17.4555 12.3077 17.1633 12.3077H16.6828C16.3906 12.3077 16.1538 11.9633 16.1538 11.5385C16.1538 11.1137 16.3907 10.7693 16.6828 10.7693Z" fill="white"/>
<path id="Path_6" opacity="0.6" d="M11.7726 19.2308C12.0682 19.2308 12.3077 19.5752 12.3077 20.0001C12.3077 20.4249 12.0682 20.7693 11.7726 20.7693H11.3044C11.0088 20.7693 10.7693 20.4249 10.7693 20.0001C10.7693 19.5752 11.0088 19.2308 11.3044 19.2308H11.7726Z" fill="white"/>
<path id="Path_7" opacity="0.6" d="M21.8296 30C22.0937 30 22.3077 30.3444 22.3077 30.7692C22.3077 31.194 22.0937 31.5385 21.8296 31.5385H21.2474C20.9833 31.5385 20.7693 31.194 20.7693 30.7692C20.7693 30.3444 20.9833 30 21.2474 30H21.8296Z" fill="white"/>
<path id="Path_8" opacity="0.6" d="M26.0745 13.8462C25.6934 13.8462 25.3845 13.5018 25.3845 13.077C25.3845 12.6521 25.6934 12.3077 26.0745 12.3077H27.0022C27.3834 12.3077 27.6922 12.6521 27.6922 13.077C27.6922 13.5018 27.3834 13.8462 27.0022 13.8462H26.0745Z" fill="white"/>
</g>
</svg>
