<svg width="46" height="38" viewBox="0 0 46 38" fill="none" xmlns="http://www.w3.org/2000/svg">
<g id="study" opacity="0.7">
<path id="Path" d="M39.2706 6.93944C37.5161 6.8106 35.5309 6.42937 33.3699 5.80652C30.7737 5.05803 28.2536 5.17358 25.8794 6.14972C25.5446 6.2874 25.3899 6.65861 25.5338 6.97891C25.6777 7.29905 26.0654 7.44733 26.4007 7.30957C28.4816 6.45394 30.6984 6.35481 32.9891 7.01519C35.241 7.66437 37.3205 8.06227 39.1696 8.19809C39.1867 8.19944 39.2039 8.19995 39.2208 8.19995C39.5623 8.19995 39.8514 7.94823 39.878 7.61708C39.9059 7.26951 39.6339 6.96612 39.2706 6.93944Z" fill="white" stroke="#E85EC0" stroke-width="0.4"/>
<path id="Path_2" d="M39.2705 10.5395C37.5165 10.4108 35.5313 10.0296 33.3699 9.40662C30.7737 8.65813 28.2536 8.77368 25.8794 9.74981C25.5446 9.88749 25.3899 10.2587 25.5338 10.579C25.6777 10.8992 26.0654 11.0474 26.4007 10.9097C28.4816 10.054 30.6984 9.9549 32.9891 10.6153C35.2416 11.2646 37.3209 11.6625 39.1696 11.7982C39.1868 11.7995 39.2039 11.8 39.2208 11.8C39.5623 11.8 39.8514 11.5483 39.878 11.2171C39.9059 10.8695 39.6339 10.5662 39.2705 10.5395Z" fill="white" stroke="#E85EC0" stroke-width="0.4"/>
<path id="Path_3" d="M39.2706 24.2195C37.5161 24.0907 35.5308 23.7094 33.3699 23.0865C30.7739 22.338 28.2539 22.4537 25.8794 23.4298C25.5446 23.5675 25.3899 23.9387 25.5338 24.259C25.6777 24.5791 26.0654 24.7274 26.4007 24.5896C28.4817 23.734 30.6985 23.635 32.9891 24.2952C35.2409 24.9443 37.3204 25.3423 39.1696 25.4781C39.1867 25.4795 39.2039 25.48 39.2208 25.48C39.5623 25.48 39.8514 25.2283 39.878 24.8971C39.9059 24.5496 39.6339 24.2462 39.2706 24.2195Z" fill="white" stroke="#E85EC0" stroke-width="0.4"/>
<path id="Path_4" d="M39.2706 26.3795C37.5161 26.2506 35.5309 25.8694 33.3699 25.2466C30.7737 24.4981 28.2536 24.6136 25.8794 25.5898C25.5446 25.7274 25.3899 26.0987 25.5338 26.419C25.6777 26.7392 26.0654 26.8874 26.4007 26.7496C28.4816 25.894 30.6984 25.7948 32.9891 26.4552C35.241 27.1044 37.3205 27.5023 39.1696 27.6382C39.1867 27.6395 39.2039 27.64 39.2208 27.64C39.5623 27.64 39.8514 27.3883 39.878 27.0571C39.9059 26.7096 39.6339 26.4062 39.2706 26.3795Z" fill="white" stroke="#E85EC0" stroke-width="0.4"/>
<path id="Path_5" d="M39.2706 12.6995C37.5161 12.5706 35.5308 12.1894 33.3699 11.5665C30.7739 10.8181 28.2539 10.9336 25.8794 11.9098C25.5446 12.0474 25.3899 12.4186 25.5338 12.7389C25.6777 13.0591 26.0654 13.2073 26.4007 13.0696C28.4817 12.214 30.6985 12.1149 32.9891 12.7751C35.2409 13.4243 37.3204 13.8223 39.1696 13.9581C39.1867 13.9595 39.2039 13.96 39.2208 13.96C39.5623 13.96 39.8514 13.7082 39.878 13.3771C39.9059 13.0295 39.6339 12.7261 39.2706 12.6995Z" fill="white" stroke="#E85EC0" stroke-width="0.4"/>
<path id="Path_6" d="M39.2705 18.4594C37.5165 18.3307 35.5313 17.9496 33.3699 17.3265C30.7739 16.5781 28.2537 16.6936 25.8794 17.6697C25.5446 17.8074 25.3899 18.1786 25.5338 18.4989C25.6777 18.8192 26.0654 18.9674 26.4007 18.8296C28.4815 17.974 30.6984 17.8749 32.9891 18.5352C35.2416 19.1845 37.3209 19.5825 39.1696 19.7182C39.1868 19.7195 39.2039 19.72 39.2208 19.72C39.5623 19.72 39.8514 19.4683 39.878 19.137C39.9059 18.7894 39.6339 18.4861 39.2705 18.4594Z" fill="white" stroke="#E85EC0" stroke-width="0.4"/>
<path id="Path_7" d="M39.2706 15.5795C37.5161 15.4506 35.5309 15.0694 33.3699 14.4465C30.774 13.698 28.2537 13.8136 25.8794 14.7897C25.5446 14.9274 25.3899 15.2986 25.5338 15.6189C25.6777 15.9391 26.0654 16.0873 26.4007 15.9496C28.4819 15.094 30.6985 14.9949 32.9891 15.6552C35.241 16.3044 37.3205 16.7023 39.1696 16.8381C39.1867 16.8395 39.2039 16.84 39.2208 16.84C39.5623 16.84 39.8514 16.5882 39.878 16.2571C39.9059 15.9095 39.6339 15.6061 39.2706 15.5795Z" fill="white" stroke="#E85EC0" stroke-width="0.4"/>
<path id="Path_8" d="M39.2705 21.3394C37.5162 21.2107 35.5309 20.8295 33.3699 20.2065C30.7739 19.4581 28.2539 19.5736 25.8794 20.5498C25.5446 20.6875 25.3899 21.0587 25.5338 21.379C25.6777 21.6991 26.0654 21.8473 26.4007 21.7097C28.4817 20.854 30.6985 20.7551 32.9891 21.4152C35.2412 22.0645 37.3206 22.4625 39.1696 22.5982C39.1868 22.5995 39.2039 22.6 39.2208 22.6C39.5623 22.6 39.8514 22.3483 39.878 22.017C39.9059 21.6694 39.6339 21.3661 39.2705 21.3394Z" fill="white" stroke="#E85EC0" stroke-width="0.4"/>
<path id="Path_9" d="M7.41915 8.19995C7.43604 8.19995 7.4532 8.19936 7.47036 8.19809C9.31954 8.06235 11.3989 7.66437 13.6509 7.01518C15.9416 6.35489 18.1583 6.45385 20.2393 7.30956C20.5741 7.44724 20.9623 7.29913 21.1062 6.97891C21.2501 6.65861 21.0954 6.28739 20.7605 6.14971C18.3863 5.17349 15.8662 5.05811 13.2701 5.80652C11.109 6.42936 9.12377 6.8106 7.36935 6.93944C7.00597 6.96603 6.73401 7.26951 6.76199 7.61707C6.78847 7.94823 7.07768 8.19995 7.41915 8.19995Z" fill="white" stroke="#E85EC0" stroke-width="0.4"/>
<path id="Path_10" d="M7.41915 11.8C7.43604 11.8 7.4532 11.7995 7.47027 11.7982C9.31901 11.6626 11.3985 11.2645 13.6509 10.6153C15.9416 9.95496 18.1583 10.0538 20.2393 10.9097C20.5741 11.0472 20.9623 10.8992 21.1062 10.579C21.2501 10.2587 21.0954 9.88747 20.7605 9.74978C18.3863 8.77355 15.8662 8.65825 13.2701 9.40659C11.1086 10.0296 9.12333 10.4108 7.36944 10.5395C7.00597 10.5661 6.73401 10.8695 6.76199 11.2171C6.78847 11.5483 7.07768 11.8 7.41915 11.8Z" fill="white" stroke="#E85EC0" stroke-width="0.4"/>
<path id="Path_11" d="M7.41915 25.48C7.43604 25.48 7.4532 25.4794 7.47036 25.4781C9.31963 25.3424 11.399 24.9443 13.6509 24.2951C15.9416 23.6347 18.1583 23.734 20.2393 24.5896C20.5741 24.7272 20.9623 24.5792 21.1062 24.2589C21.2501 23.9386 21.0954 23.5674 20.7605 23.4298C18.3863 22.4535 15.8662 22.3382 13.2701 23.0865C11.1091 23.7094 9.12386 24.0906 7.36935 24.2195C7.00597 24.2461 6.73401 24.5495 6.76199 24.8971C6.78847 25.2283 7.07768 25.48 7.41915 25.48Z" fill="white" stroke="#E85EC0" stroke-width="0.4"/>
<path id="Path_12" d="M7.41915 27.64C7.43604 27.64 7.4532 27.6394 7.47036 27.6382C9.31954 27.5024 11.3989 27.1044 13.6509 26.4552C15.9416 25.7949 18.1583 25.8938 20.2393 26.7496C20.5741 26.8871 20.9623 26.7392 21.1062 26.419C21.2501 26.0987 21.0954 25.7275 20.7605 25.5898C18.3863 24.6136 15.8662 24.4982 13.2701 25.2466C11.109 25.8694 9.12377 26.2507 7.36935 26.3795C7.00597 26.4061 6.73401 26.7096 6.76199 27.0571C6.78847 27.3883 7.07768 27.64 7.41915 27.64Z" fill="white" stroke="#E85EC0" stroke-width="0.4"/>
<path id="Path_13" d="M7.41915 13.96C7.43604 13.96 7.4532 13.9594 7.47036 13.9581C9.31963 13.8224 11.399 13.4243 13.6509 12.7751C15.9416 12.1147 18.1583 12.214 20.2393 13.0696C20.5741 13.2072 20.9623 13.0591 21.1062 12.7389C21.2501 12.4186 21.0954 12.0474 20.7605 11.9097C18.3863 10.9335 15.8662 10.8181 13.2701 11.5665C11.1091 12.1894 9.12386 12.5706 7.36935 12.6995C7.00597 12.7261 6.73401 13.0295 6.76199 13.3771C6.78847 13.7082 7.07768 13.96 7.41915 13.96Z" fill="white" stroke="#E85EC0" stroke-width="0.4"/>
<path id="Path_14" d="M7.41915 19.72C7.43604 19.72 7.4532 19.7194 7.47027 19.7182C9.31901 19.5825 11.3985 19.1845 13.6509 18.5352C15.9416 17.8749 18.1583 17.9738 20.2393 18.8296C20.5741 18.9672 20.9623 18.8191 21.1062 18.4989C21.2501 18.1786 21.0954 17.8074 20.7605 17.6697C18.3864 16.6936 15.8663 16.5781 13.2701 17.3265C11.1086 17.9495 9.12333 18.3307 7.36944 18.4594C7.00597 18.486 6.73401 18.7894 6.76199 19.137C6.78847 19.4682 7.07768 19.72 7.41915 19.72Z" fill="white" stroke="#E85EC0" stroke-width="0.4"/>
<path id="Path_15" d="M7.41915 16.84C7.43604 16.84 7.4532 16.8394 7.47036 16.8381C9.31954 16.7024 11.3989 16.3044 13.6509 15.6552C15.9415 14.995 18.1582 15.0938 20.2393 15.9496C20.5741 16.0871 20.9623 15.9392 21.1062 15.619C21.2501 15.2987 21.0954 14.9275 20.7605 14.7898C18.3861 13.8136 15.8662 13.698 13.2701 14.4466C11.109 15.0694 9.12377 15.4506 7.36935 15.5795C7.00597 15.6061 6.73401 15.9095 6.76199 16.2571C6.78847 16.5883 7.07768 16.84 7.41915 16.84Z" fill="white" stroke="#E85EC0" stroke-width="0.4"/>
<path id="Path_16" d="M7.41915 22.6C7.43604 22.6 7.4532 22.5994 7.47027 22.5982C9.31936 22.4625 11.3987 22.0645 13.6509 21.4152C15.9416 20.7547 18.1583 20.854 20.2393 21.7097C20.5741 21.8473 20.9623 21.6992 21.1062 21.379C21.2501 21.0587 21.0954 20.6875 20.7605 20.5498C18.3863 19.5736 15.8662 19.4581 13.2701 20.2065C11.109 20.8295 9.1236 21.2107 7.36944 21.3394C7.00597 21.366 6.73401 21.6694 6.76199 22.017C6.78847 22.3483 7.07768 22.6 7.41915 22.6Z" fill="white" stroke="#E85EC0" stroke-width="0.4"/>
<g id="Shape">
<path fill-rule="evenodd" clip-rule="evenodd" d="M43.0192 4.73853H44.0429C44.9235 4.73853 45.6399 5.45878 45.64 6.34427V17.4695C45.64 17.8327 45.3473 18.127 44.9861 18.127C44.6249 18.127 44.3322 17.8327 44.3322 17.4695V6.34427C44.3322 6.18393 44.2024 6.05349 44.043 6.05349H43.0193V31.2318C43.0193 31.5301 42.8196 31.7911 42.5327 31.8673C42.4084 31.9004 39.4136 32.6567 33.1489 30.7585C29.2124 29.5659 26.2735 31.055 24.8718 32.0489C23.9152 32.7272 22.6659 32.6852 21.7685 32.049C19.4475 30.4033 16.5221 29.8401 13.4912 30.7585C7.22687 32.6567 4.23179 31.9005 4.10746 31.8673C3.82061 31.7911 3.62087 31.5301 3.62087 31.2318V6.05349H2.59702C2.43755 6.05349 2.30782 6.18393 2.30782 6.34427V33.0065C2.30782 33.1669 2.43755 33.2973 2.59711 33.2973H19.54C20.2972 33.2973 20.9916 33.734 21.3091 34.4096C22.1114 36.1165 24.5316 36.1097 25.3309 34.4095C25.6485 33.7338 26.3429 33.2973 27.1 33.2973H44.0428C44.2023 33.2973 44.3319 33.1669 44.3319 33.0065V20.5377C44.3319 20.1746 44.6246 19.8803 44.9858 19.8803C45.347 19.8803 45.6397 20.1746 45.6397 20.5377V33.0066C45.6397 33.892 44.9234 34.6124 44.0428 34.6124H27.0999C26.8461 34.6124 26.6158 34.7534 26.5132 34.9715C25.2394 37.6811 21.3958 37.6712 20.1267 34.9715C20.0241 34.7532 19.7939 34.6124 19.54 34.6124H2.59711C1.71651 34.6124 1 33.8921 1 33.0066V6.34427C1 5.45878 1.71642 4.73853 2.59702 4.73853H3.62087V4.13865C3.62087 3.29953 4.33293 2.63241 5.16941 2.69991C6.34793 2.7945 8.94769 2.76601 13.1138 1.50365C16.9954 0.327199 20.7167 1.3349 23.3183 3.60346C24.453 2.60804 27.5241 0.422227 31.9746 1.14317C32.3312 1.20094 32.5737 1.53836 32.5162 1.89682C32.4588 2.25537 32.123 2.4996 31.7667 2.44139C27.5282 1.75568 24.6804 4.11577 23.9738 4.7821V31.0628C24.0494 31.0217 24.1543 30.9548 24.2877 30.8698C25.4414 30.1347 28.7227 28.0439 33.5261 29.4994C35.9254 30.2264 39.2343 30.9393 41.7113 30.6706V4.13865C41.7113 4.06334 41.6495 4.00522 41.5751 4.01048C40.2982 4.11366 38.0794 4.0587 34.7616 3.21283C34.4115 3.12368 34.1996 2.76601 34.2885 2.41395C34.3771 2.06207 34.7328 1.84878 35.083 1.93829C38.3929 2.78214 40.5057 2.7774 41.4706 2.69982C42.3059 2.63293 43.0192 3.29795 43.0192 4.13865V4.73853ZM5.06487 4.01048C4.98858 4.00514 4.92868 4.06492 4.92868 4.13865L4.9286 30.671C7.09521 30.9056 9.89621 30.382 12.0018 29.8172L12.0148 29.8137C12.3735 29.7174 12.7611 29.6064 13.1138 29.4995C18.1274 27.98 21.626 30.3599 22.49 30.9476C22.5739 31.0046 22.6329 31.0448 22.6661 31.0628V4.78263C20.414 2.66239 17.0317 1.69011 13.4912 2.76259C9.11954 4.08728 6.3352 4.11323 5.06487 4.01048Z" fill="white"/>
<path d="M43.0192 4.73853H42.8192V4.93853H43.0192V4.73853ZM45.64 6.34427H45.84V6.34425L45.64 6.34427ZM43.0193 6.05349V5.85349H42.8193V6.05349H43.0193ZM42.5327 31.8673L42.5841 32.0606L42.5841 32.0606L42.5327 31.8673ZM33.1489 30.7585L33.2069 30.5671L33.2069 30.5671L33.1489 30.7585ZM24.8718 32.0489L24.7561 31.8857L24.7561 31.8857L24.8718 32.0489ZM21.7685 32.049L21.6528 32.2121L21.6528 32.2121L21.7685 32.049ZM13.4912 30.7585L13.4332 30.5671L13.4332 30.5671L13.4912 30.7585ZM4.10746 31.8673L4.15897 31.6741L4.15885 31.674L4.10746 31.8673ZM3.62087 6.05349H3.82087V5.85349H3.62087V6.05349ZM21.3091 34.4096L21.1281 34.4947L21.1281 34.4947L21.3091 34.4096ZM25.3309 34.4095L25.5119 34.4946L25.5119 34.4946L25.3309 34.4095ZM26.5132 34.9715L26.3322 34.8864L26.3322 34.8864L26.5132 34.9715ZM20.1267 34.9715L19.9456 35.0565L19.9457 35.0566L20.1267 34.9715ZM3.62087 4.73853V4.93853H3.82087V4.73853H3.62087ZM5.16941 2.69991L5.15332 2.89926L5.15341 2.89927L5.16941 2.69991ZM13.1138 1.50365L13.1718 1.69505L13.1718 1.69505L13.1138 1.50365ZM23.3183 3.60346L23.1869 3.7542L23.3187 3.86917L23.4502 3.7538L23.3183 3.60346ZM31.9746 1.14317L32.0066 0.945748L32.0066 0.945748L31.9746 1.14317ZM32.5162 1.89682L32.3187 1.86517L32.3187 1.86517L32.5162 1.89682ZM31.7667 2.44139L31.7989 2.244L31.7986 2.24396L31.7667 2.44139ZM23.9738 4.7821L23.8366 4.6366L23.7738 4.6958V4.7821H23.9738ZM23.9738 31.0628H23.7738V31.3996L24.0695 31.2385L23.9738 31.0628ZM24.2877 30.8698L24.3952 31.0385H24.3952L24.2877 30.8698ZM33.5261 29.4994L33.4681 29.6909L33.4681 29.6909L33.5261 29.4994ZM41.7113 30.6706L41.7329 30.8695L41.9113 30.8501V30.6706H41.7113ZM41.5751 4.01048L41.561 3.81097L41.559 3.81113L41.5751 4.01048ZM34.7616 3.21283L34.811 3.01903L34.8109 3.01902L34.7616 3.21283ZM34.2885 2.41395L34.4824 2.46289L34.4824 2.46277L34.2885 2.41395ZM35.083 1.93829L35.0335 2.13206L35.0336 2.13209L35.083 1.93829ZM41.4706 2.69982L41.4546 2.50046L41.4546 2.50046L41.4706 2.69982ZM4.92868 4.13865L5.12868 4.13865V4.13865H4.92868ZM5.06487 4.01048L5.081 3.81112L5.07886 3.81097L5.06487 4.01048ZM4.9286 30.671H4.7286L4.7286 30.8505L4.90707 30.8698L4.9286 30.671ZM12.0018 29.8172L12.0536 30.0104L12.0539 30.0103L12.0018 29.8172ZM12.0148 29.8137L11.9629 29.6206L11.9627 29.6206L12.0148 29.8137ZM13.1138 29.4995L13.1718 29.6909L13.1718 29.6909L13.1138 29.4995ZM22.49 30.9476L22.6025 30.7822L22.49 30.9476ZM22.6661 31.0628L22.5705 31.2385L22.8661 31.3994V31.0628H22.6661ZM22.6661 4.78263H22.8661V4.69623L22.8032 4.63701L22.6661 4.78263ZM13.4912 2.76259L13.4332 2.57118L13.4332 2.57118L13.4912 2.76259ZM44.0429 4.53853H43.0192V4.93853H44.0429V4.53853ZM45.84 6.34425C45.8399 5.34934 45.035 4.53853 44.0429 4.53853V4.93853C44.812 4.93853 45.4399 5.56821 45.44 6.34429L45.84 6.34425ZM45.84 17.4695V6.34427H45.44V17.4695H45.84ZM44.9861 18.327C45.4588 18.327 45.84 17.9421 45.84 17.4695H45.44C45.44 17.7233 45.2358 17.927 44.9861 17.927V18.327ZM44.1322 17.4695C44.1322 17.9421 44.5134 18.327 44.9861 18.327V17.927C44.7364 17.927 44.5322 17.7233 44.5322 17.4695H44.1322ZM44.1322 6.34427V17.4695H44.5322V6.34427H44.1322ZM44.043 6.25349C44.091 6.25349 44.1322 6.29336 44.1322 6.34427H44.5322C44.5322 6.0745 44.3139 5.85349 44.043 5.85349V6.25349ZM43.0193 6.25349H44.043V5.85349H43.0193V6.25349ZM43.2193 31.2318V6.05349H42.8193V31.2318H43.2193ZM42.5841 32.0606C42.9592 31.9609 43.2193 31.6201 43.2193 31.2318H42.8193C42.8193 31.4401 42.6799 31.6213 42.4813 31.674L42.5841 32.0606ZM33.091 30.9499C39.3881 32.8579 42.4209 32.104 42.5841 32.0606L42.4813 31.674C42.3959 31.6968 39.439 32.4554 33.2069 30.5671L33.091 30.9499ZM24.9875 32.212C26.3601 31.2387 29.2348 29.7817 33.091 30.9499L33.2069 30.5671C29.19 29.3501 26.1868 30.8712 24.7561 31.8857L24.9875 32.212ZM21.6528 32.2121C22.6169 32.8956 23.9591 32.9413 24.9875 32.212L24.7561 31.8857C23.8714 32.5131 22.7149 32.4747 21.8842 31.8858L21.6528 32.2121ZM13.5492 30.9499C16.5202 30.0497 19.3815 30.6017 21.6528 32.2121L21.8842 31.8858C19.5134 30.2048 16.5241 29.6305 13.4332 30.5671L13.5492 30.9499ZM4.05596 32.0606C4.21929 32.1041 7.25239 32.858 13.5492 30.9499L13.4332 30.5671C7.20135 32.4555 4.24429 31.6968 4.15897 31.6741L4.05596 32.0606ZM3.42087 31.2318C3.42087 31.6201 3.68093 31.9609 4.05607 32.0606L4.15885 31.674C3.9603 31.6213 3.82087 31.4401 3.82087 31.2318H3.42087ZM3.42087 6.05349V31.2318H3.82087V6.05349H3.42087ZM2.59702 6.25349H3.62087V5.85349H2.59702V6.25349ZM2.50782 6.34427C2.50782 6.29336 2.54904 6.25349 2.59702 6.25349V5.85349C2.32607 5.85349 2.10782 6.0745 2.10782 6.34427H2.50782ZM2.50782 33.0065V6.34427H2.10782V33.0065H2.50782ZM2.59711 33.0973C2.549 33.0973 2.50782 33.0574 2.50782 33.0065H2.10782C2.10782 33.2763 2.32611 33.4973 2.59711 33.4973V33.0973ZM19.54 33.0973H2.59711V33.4973H19.54V33.0973ZM21.4901 34.3245C21.139 33.5775 20.3733 33.0973 19.54 33.0973V33.4973C20.2211 33.4973 20.8441 33.8904 21.1281 34.4947L21.4901 34.3245ZM25.1499 34.3244C24.4223 35.8721 22.2201 35.8776 21.4901 34.3245L21.1281 34.4947C22.0027 36.3554 24.6408 36.3474 25.5119 34.4946L25.1499 34.3244ZM27.1 33.0973C26.2668 33.0973 25.5011 33.5773 25.1499 34.3244L25.5119 34.4946C25.796 33.8903 26.419 33.4973 27.1 33.4973V33.0973ZM44.0428 33.0973H27.1V33.4973H44.0428V33.0973ZM44.1319 33.0065C44.1319 33.0575 44.0907 33.0973 44.0428 33.0973V33.4973C44.3138 33.4973 44.5319 33.2762 44.5319 33.0065H44.1319ZM44.1319 20.5377V33.0065H44.5319V20.5377H44.1319ZM44.9858 19.6803C44.5131 19.6803 44.1319 20.0651 44.1319 20.5377H44.5319C44.5319 20.284 44.7361 20.0803 44.9858 20.0803V19.6803ZM45.8397 20.5377C45.8397 20.0651 45.4585 19.6803 44.9858 19.6803V20.0803C45.2356 20.0803 45.4397 20.284 45.4397 20.5377H45.8397ZM45.8397 33.0066V20.5377H45.4397V33.0066H45.8397ZM44.0428 34.8124C45.0349 34.8124 45.8397 34.0014 45.8397 33.0066H45.4397C45.4397 33.7826 44.8119 34.4124 44.0428 34.4124V34.8124ZM27.0999 34.8124H44.0428V34.4124H27.0999V34.8124ZM26.6941 35.0567C26.7616 34.9132 26.9184 34.8124 27.0999 34.8124V34.4124C26.7737 34.4124 26.4699 34.5936 26.3322 34.8864L26.6941 35.0567ZM19.9457 35.0566C21.2865 37.909 25.3482 37.92 26.6942 35.0566L26.3322 34.8864C25.1307 37.4423 21.505 37.4335 20.3077 34.8864L19.9457 35.0566ZM19.54 34.8124C19.7216 34.8124 19.8783 34.9131 19.9456 35.0565L20.3077 34.8865C20.17 34.5933 19.8661 34.4124 19.54 34.4124V34.8124ZM2.59711 34.8124H19.54V34.4124H2.59711V34.8124ZM0.8 33.0066C0.8 34.0016 1.60505 34.8124 2.59711 34.8124V34.4124C1.82797 34.4124 1.2 33.7827 1.2 33.0066H0.8ZM0.8 6.34427V33.0066H1.2V6.34427H0.8ZM2.59702 4.53853C1.60495 4.53853 0.8 5.34934 0.8 6.34427H1.2C1.2 5.56821 1.8279 4.93853 2.59702 4.93853V4.53853ZM3.62087 4.53853H2.59702V4.93853H3.62087V4.53853ZM3.42087 4.13865V4.73853H3.82087V4.13865H3.42087ZM5.1855 2.50056C4.2307 2.42351 3.42087 3.18464 3.42087 4.13865H3.82087C3.82087 3.41442 4.43516 2.84131 5.15332 2.89926L5.1855 2.50056ZM13.0558 1.31224C8.91137 2.56803 6.33672 2.59296 5.18541 2.50055L5.15341 2.89927C6.35914 2.99604 8.98402 2.96398 13.1718 1.69505L13.0558 1.31224ZM23.4498 3.45272C20.7981 1.14051 17.0057 0.115099 13.0558 1.31225L13.1718 1.69505C16.9851 0.5393 20.6354 1.52928 23.1869 3.7542L23.4498 3.45272ZM32.0066 0.945748C27.4718 0.211145 24.3422 2.4392 23.1864 3.45312L23.4502 3.7538C24.5638 2.77687 27.5764 0.633309 31.9426 1.3406L32.0066 0.945748ZM32.7137 1.92847C32.7885 1.46201 32.473 1.02131 32.0066 0.945748L31.9426 1.3406C32.1894 1.38058 32.3589 1.61471 32.3187 1.86517L32.7137 1.92847ZM31.7344 2.63877C32.2013 2.71504 32.6389 2.395 32.7137 1.92847L32.3187 1.86517C32.2786 2.11573 32.0447 2.28416 31.7989 2.244L31.7344 2.63877ZM24.111 4.9276C24.8009 4.27701 27.5881 1.96797 31.7347 2.63882L31.7986 2.24396C27.4683 1.54339 24.5599 3.95452 23.8366 4.6366L24.111 4.9276ZM24.1738 31.0628V4.7821H23.7738V31.0628H24.1738ZM24.1802 30.7012C24.0441 30.7879 23.9462 30.8501 23.8781 30.8872L24.0695 31.2385C24.1526 31.1932 24.2646 31.1217 24.3952 31.0385L24.1802 30.7012ZM33.5841 29.308C28.693 27.8259 25.3455 29.9586 24.1802 30.7012L24.3952 31.0385C25.5373 30.3107 28.7524 28.2619 33.4681 29.6909L33.5841 29.308ZM41.6897 30.4718C39.2551 30.7359 35.9787 30.0336 33.5841 29.308L33.4681 29.6909C35.872 30.4192 39.2136 31.1427 41.7329 30.8695L41.6897 30.4718ZM41.5113 4.13865V30.6706H41.9113V4.13865H41.5113ZM41.5892 4.20999C41.546 4.21304 41.5113 4.17747 41.5113 4.13865H41.9113C41.9113 3.94922 41.753 3.79741 41.561 3.81098L41.5892 4.20999ZM34.7122 3.40663C38.0488 4.25729 40.2898 4.31499 41.5912 4.20983L41.559 3.81113C40.3066 3.91233 38.11 3.86011 34.811 3.01903L34.7122 3.40663ZM34.0946 2.36501C33.979 2.82312 34.2544 3.29005 34.7122 3.40664L34.8109 3.01902C34.5686 2.95731 34.4203 2.70889 34.4824 2.46289L34.0946 2.36501ZM35.1326 1.74451C34.6741 1.62734 34.2099 1.90683 34.0945 2.36513L34.4824 2.46277C34.5442 2.21731 34.7915 2.07022 35.0335 2.13206L35.1326 1.74451ZM41.4546 2.50046C40.5127 2.57619 38.422 2.58317 35.1324 1.74448L35.0336 2.13209C38.3637 2.98111 40.4986 2.97861 41.4866 2.89918L41.4546 2.50046ZM43.2192 4.13865C43.2192 3.18268 42.4078 2.42414 41.4546 2.50046L41.4866 2.89918C42.204 2.84173 42.8192 3.41322 42.8192 4.13865H43.2192ZM43.2192 4.73853V4.13865H42.8192V4.73853H43.2192ZM5.12868 4.13865C5.12868 4.17545 5.09563 4.21313 5.05089 4.20999L5.07886 3.81097C4.88153 3.79714 4.72868 3.9544 4.72868 4.13865H5.12868ZM5.1286 30.671L5.12868 4.13865L4.72868 4.13865L4.7286 30.671H5.1286ZM11.95 29.6241C9.84953 30.1874 7.0783 30.7026 4.95013 30.4721L4.90707 30.8698C7.11212 31.1086 9.94289 30.5765 12.0536 30.0104L11.95 29.6241ZM11.9627 29.6206L11.9497 29.6241L12.0539 30.0103L12.0669 30.0068L11.9627 29.6206ZM13.0558 29.3081C12.7051 29.4144 12.3195 29.5248 11.9629 29.6206L12.0667 30.0069C12.4275 29.91 12.8171 29.7984 13.1718 29.6909L13.0558 29.3081ZM22.6025 30.7822C21.7268 30.1866 18.1604 27.761 13.0558 29.3081L13.1718 29.6909C18.0944 28.199 21.5252 30.5332 22.3775 31.1129L22.6025 30.7822ZM22.7617 30.8872C22.7397 30.8752 22.6918 30.843 22.6025 30.7822L22.3775 31.1129C22.4559 31.1663 22.5261 31.2144 22.5705 31.2385L22.7617 30.8872ZM22.4661 4.78263V31.0628H22.8661V4.78263H22.4661ZM13.5492 2.954C17.0201 1.90258 20.3283 2.85638 22.529 4.92825L22.8032 4.63701C20.4997 2.4684 17.0432 1.47764 13.4332 2.57118L13.5492 2.954ZM5.04875 4.20983C6.34576 4.31473 9.15524 4.28544 13.5492 2.95399L13.4332 2.57118C9.08385 3.88911 6.32464 3.91172 5.081 3.81113L5.04875 4.20983Z" fill="#E85EC0"/>
</g>
</g>
</svg>
