<svg width="40" height="40" viewBox="0 0 48 48" fill="none" xmlns="http://www.w3.org/2000/svg">
<g id="formula" opacity="0.75" filter="url(#filter0_d_511_178)">
<path id="Shape" fill-rule="evenodd" clip-rule="evenodd" d="M41.4194 11.6129C42.8426 11.6129 44 10.4555 44 9.03226V7.74194C44 6.31867 42.8426 5.16129 41.4194 5.16129H36.2581V3.87097C36.9697 3.87097 37.5484 3.29228 37.5484 2.58065V1.29032C37.5484 0.578692 36.9697 0 36.2581 0H5.29032C4.57869 0 4 0.578692 4 1.29032V2.58065C4 3.29228 4.57869 3.87097 5.29032 3.87097V17.1412L4 15.9227V40H29.4936L11.7328 23.2258H29.8065V34.1936C29.8065 35.2605 30.675 36.129 31.7419 36.129H42.0645C43.1315 36.129 44 35.2605 44 34.1936V17.4194C44 16.3524 43.1315 15.4839 42.0645 15.4839H36.2581V11.6129H41.4194ZM38.8387 7.74194H24.6452V6.45161H38.8387V7.74194ZM21.2924 8.3871L23.3548 9.76248V7.01172L21.2924 8.3871ZM24.6452 9.03226H38.8387V10.3226H24.6452V9.03226ZM41.4194 10.3226C42.131 10.3226 42.7097 9.74389 42.7097 9.03226V7.74194C42.7097 7.0303 42.131 6.45161 41.4194 6.45161H40.129V10.3226H41.4194ZM5.29032 1.29032H36.2581L36.2587 2.58065H5.29032V1.29032ZM5.29032 37.4194V38.7097H26.2483L5.29032 18.916V23.2258H6.58065V24.5161H5.29032V25.8065H6.58065V27.0968H5.29032V28.3871H6.58065V29.6774H5.29032V30.9677H6.58065V32.2581H5.29032V33.5484H6.58065V34.8387H5.29032V36.129H6.58065V37.4194H5.29032ZM42.7097 34.1936C42.7097 34.5495 42.4199 34.8387 42.0645 34.8387H31.7419C31.3866 34.8387 31.0968 34.5495 31.0968 34.1936V17.4194C31.0968 17.0634 31.3866 16.7742 31.7419 16.7742H42.0645C42.4199 16.7742 42.7097 17.0634 42.7097 17.4194V34.1936ZM24 15.4839H34.9677V11.6129H23.8044L18.9657 8.3871L23.8044 5.16129H34.9677V3.87097H6.58065V18.36L10.3666 21.9355H29.8065V19.3548H24V18.0645H29.8065V17.4194C29.8065 17.1922 29.8528 16.9768 29.9252 16.7742H24V15.4839Z" fill="#FFCFDB"/>
<path id="Path" d="M17.077 7.69226H12.8462L11.7341 16.7276L9.98772 14.362H7.84619V15.6959H9.39697L12.5737 20L13.9231 9.0262H17.077V7.69226Z" fill="#FFCFDB"/>
<path id="Path_2" d="M21.5086 10.7693L18.6154 13.6625L15.7223 10.7693L14.7693 11.7223L17.6625 14.6154L14.7693 17.5086L15.7223 18.4616L18.6154 15.5684L21.5086 18.4616L22.4616 17.5086L19.5684 14.6154L22.4616 11.7223L21.5086 10.7693Z" fill="#FFCFDB"/>
<path id="Path_3" d="M24.7693 13.0769H34.0001V14.6154H24.7693V13.0769Z" fill="#FFCFDB"/>
<path id="Shape_2" fill-rule="evenodd" clip-rule="evenodd" d="M7.0769 36.9231V25.3846L19.3846 36.9231H7.0769ZM16.0244 35.5968L8.41304 28.4617V35.5968H16.0244Z" fill="#FFCFDB"/>
<path id="Shape_3" fill-rule="evenodd" clip-rule="evenodd" d="M32.4615 17.6923H40.9231V23.0769H32.4615V17.6923ZM33.6703 21.7307H39.7143V19.0384H33.6703V21.7307Z" fill="#FFCFDB"/>
<path id="Path_4" d="M37.0769 25.3846H40.9231V26.9231H37.0769V25.3846Z" fill="#FFCFDB"/>
<path id="Path_5" d="M32.4615 30H36.3077V31.5385H32.4615V30Z" fill="#FFCFDB"/>
<path id="Path_6" d="M32.4615 32.3077H36.3077V33.8462H32.4615V32.3077Z" fill="#FFCFDB"/>
<path id="Path_7" d="M33.7436 28.4615H35.0257V27.1795H36.3077V25.8974H35.0257V24.6154H33.7436V25.8974H32.4615V27.1795H33.7436V28.4615Z" fill="#FFCFDB"/>
<path id="Path_8" d="M40.1195 30L39.3847 30.7348L38.6498 30L37.8462 30.8036L38.581 31.5385L37.8462 32.2733L38.6498 33.0769L39.3847 32.3421L40.1195 33.0769L40.9231 32.2733L40.1883 31.5385L40.9231 30.8036L40.1195 30Z" fill="#FFCFDB"/>
</g>
<defs>
<filter id="filter0_d_511_178" x="0" y="0" width="48" height="48" filterUnits="userSpaceOnUse" color-interpolation-filters="sRGB">
<feFlood flood-opacity="0" result="BackgroundImageFix"/>
<feColorMatrix in="SourceAlpha" type="matrix" values="0 0 0 0 0 0 0 0 0 0 0 0 0 0 0 0 0 0 127 0" result="hardAlpha"/>
<feOffset dy="4"/>
<feGaussianBlur stdDeviation="2"/>
<feComposite in2="hardAlpha" operator="out"/>
<feColorMatrix type="matrix" values="0 0 0 0 0 0 0 0 0 0 0 0 0 0 0 0 0 0 0.25 0"/>
<feBlend mode="normal" in2="BackgroundImageFix" result="effect1_dropShadow_511_178"/>
<feBlend mode="normal" in="SourceGraphic" in2="effect1_dropShadow_511_178" result="shape"/>
</filter>
</defs>
</svg>
