<svg width="37" height="40" viewBox="0 0 37 40" fill="none" xmlns="http://www.w3.org/2000/svg">
<g id="science (1) copy">
<path id="Shape" opacity="0.6" fill-rule="evenodd" clip-rule="evenodd" d="M14.2754 19.6094C14.2754 17.048 16.3518 14.9717 18.9131 14.9717C21.4732 14.9745 23.548 17.0492 23.5508 19.6094C23.5508 22.1707 21.4744 24.247 18.9131 24.247C16.3518 24.247 14.2754 22.1707 14.2754 19.6094ZM15.4559 19.6094C15.4559 21.5187 17.0037 23.0665 18.9131 23.0665C20.8216 23.0645 22.3682 21.5179 22.3703 19.6094C22.3703 17.7 20.8224 16.1522 18.9131 16.1522C17.0037 16.1522 15.4559 17.7 15.4559 19.6094Z" fill="white"/>
<path id="Path" opacity="0.6" d="M20.1831 20.189C19.924 20.189 19.714 20.4504 19.714 20.7728C19.7126 21.278 19.4965 21.7445 19.146 21.9992C19.0011 22.1043 18.9124 22.2975 18.9131 22.5061C18.9138 22.7147 19.0039 22.907 19.1494 23.0105C19.2949 23.1141 19.4737 23.1131 19.6186 23.008C20.257 22.5435 20.6502 21.6932 20.6522 20.7728C20.6522 20.4504 20.4422 20.189 20.1831 20.189Z" fill="white"/>
<path id="Shape_2" opacity="0.6" fill-rule="evenodd" clip-rule="evenodd" d="M33.6702 18.8284C33.8815 18.8842 34.099 18.9128 34.3175 18.9136C35.3556 18.913 36.2912 18.2849 36.6884 17.322C37.0857 16.3591 36.8666 15.2507 36.1331 14.5132C36.0921 14.4723 36.0485 14.4352 36.004 14.3973L36.004 14.3973L36.0039 14.3973L36.0039 14.3973L36.0038 14.3972L36.0006 14.3944C36.4313 12.8262 36.3319 11.4603 35.6848 10.334C34.2933 7.91218 30.6394 7.11879 25.6257 8.1211C23.9781 3.26026 21.4655 0.478882 18.6852 0.478882C15.9049 0.478882 13.3926 3.25992 11.7433 8.12143C6.72869 7.11846 3.07572 7.91218 1.68456 10.3336C1.0574 11.4214 0.947408 12.7883 1.34729 14.3056C0.373422 15.0712 0.0815103 16.4251 0.65284 17.5265C1.22417 18.6279 2.49636 19.1639 3.67936 18.8015C4.02325 19.2609 4.39995 19.7256 4.8058 20.191C1.43675 24.0512 0.294072 27.625 1.68423 30.0441C2.68312 31.7829 4.84522 32.6848 7.84089 32.6848C9.15227 32.6686 10.459 32.5247 11.7427 32.255C13.3916 37.1171 15.9045 39.8992 18.6852 39.8992C19.9415 39.8992 21.1806 39.3077 22.2941 38.1946C23.4244 38.6919 24.7471 38.311 25.4431 37.2879C26.1392 36.2647 26.0114 34.8891 25.139 34.0127C25.1024 33.9757 25.0636 33.9418 25.0248 33.908L25.0248 33.9079L25.0247 33.9078L25.0246 33.9077L25.0085 33.8937C25.2255 33.3784 25.4332 32.8291 25.6294 32.255C26.9125 32.5249 28.2186 32.6688 29.5295 32.6848C32.5248 32.6848 34.6873 31.7826 35.6862 30.0441C37.0776 27.625 35.9336 24.0512 32.5653 20.1914C32.9562 19.7433 33.3253 19.2875 33.6702 18.8284ZM35.3128 17.3361C34.7626 17.887 33.8722 17.887 33.322 17.3361C32.7727 16.7841 32.7729 15.8896 33.3225 15.3379C33.8721 14.7862 34.763 14.7862 35.3126 15.3379C35.8622 15.8896 35.8624 16.7841 35.3131 17.3361H35.3128ZM34.9497 13.8432C35.2227 12.6895 35.1352 11.7065 34.6816 10.9158V10.9154C33.581 8.99998 30.3498 8.38822 25.9805 9.23651C26.5446 11.2134 26.937 13.2357 27.1534 15.2806C28.8101 16.4907 30.3579 17.8444 31.7791 19.3261C32.0781 18.9797 32.3622 18.6306 32.6312 18.2789L32.6066 18.2573C32.5706 18.2257 32.5346 18.1942 32.5006 18.1598C31.6851 17.339 31.5161 16.0723 32.0877 15.0649C32.6592 14.0574 33.8306 13.5574 34.9497 13.8432ZM24.8438 30.8947C23.2308 30.4995 21.6496 29.9835 20.1135 29.3508C21.1024 28.8708 22.0874 28.3492 23.0538 27.789C24.0278 27.2235 24.9704 26.6273 25.8699 26.0103C25.6499 27.6619 25.307 29.2946 24.8438 30.8947ZM11.4995 26.0103C11.7197 27.6619 12.0631 29.2946 12.5265 30.8947C14.1397 30.4995 15.721 29.9835 17.2573 29.3508C16.2667 28.8715 15.2827 28.3492 14.3173 27.789C13.3435 27.2241 12.4013 26.6273 11.4995 26.0103ZM12.5265 9.48334C14.1396 9.87848 15.7208 10.3946 17.2569 11.0272C16.2677 11.5072 15.283 12.0289 14.3166 12.5907C13.3426 13.1562 12.4 13.7524 11.4988 14.3695C11.7192 12.7172 12.0627 11.0839 12.5265 9.48334ZM6.3732 20.189C7.5198 21.3942 8.75605 22.5101 10.0712 23.5269C9.98874 22.4278 9.94601 21.3104 9.94601 20.189C9.94601 19.0676 9.98941 17.9489 10.0712 16.8511C8.75614 17.8681 7.5199 18.9839 6.3732 20.189ZM14.8974 26.7804C13.6424 26.0528 12.4414 25.2717 11.317 24.4594C11.1785 23.0652 11.1056 21.6318 11.1056 20.189C11.1056 18.7463 11.1785 17.3132 11.317 15.9187C12.4404 15.107 13.6417 14.3256 14.8974 13.5977C16.1398 12.8768 17.4133 12.2215 18.6855 11.6423C19.9587 12.2218 21.2319 12.8771 22.4743 13.5977C23.7293 14.3252 24.9303 15.1063 26.0548 15.9187C26.1932 17.3128 26.2661 18.7463 26.2661 20.189C26.2661 21.6318 26.1932 23.0649 26.0548 24.4594C24.9313 25.2711 23.73 26.0525 22.4743 26.7804C21.2319 27.5012 19.9584 28.1566 18.6862 28.7357C17.4123 28.1562 16.1391 27.5009 14.8967 26.7804H14.8974ZM25.8715 14.3665C25.6513 12.7148 25.308 11.0821 24.8445 9.48201L24.8438 9.48334C23.2307 9.87853 21.6494 10.3946 20.1131 11.0272C21.1037 11.5066 22.0877 12.0289 23.0554 12.5877C24.0275 13.1526 24.9697 13.7494 25.8715 14.3665ZM27.2991 16.8511C28.6143 17.868 29.8506 18.9838 30.9972 20.189C29.8505 21.3941 28.6142 22.51 27.2991 23.5269C27.381 22.4292 27.4244 21.3104 27.4244 20.189C27.4244 19.0676 27.3816 17.9502 27.2991 16.8511ZM24.488 8.37126C23.0296 4.1478 20.8844 1.64319 18.6852 1.64319C16.486 1.64319 14.3411 4.14746 12.8824 8.37126C14.8702 8.86739 16.8116 9.5352 18.6849 10.3672C20.5584 9.5353 22.5 8.86749 24.488 8.37126ZM1.93072 17.3361C1.45422 16.8591 1.37977 16.1105 1.75292 15.5483C2.12606 14.9861 2.84283 14.767 3.4647 15.025C4.08657 15.283 4.44025 15.9462 4.30936 16.6089C4.17847 17.2716 3.59949 17.7491 2.92663 17.7493C2.55289 17.7508 2.19411 17.602 1.93039 17.3361H1.93072ZM2.41509 13.8116C3.25878 13.6389 4.13248 13.9024 4.74185 14.5132V14.5122C5.74326 15.5195 5.74326 17.1508 4.74185 18.1581C4.73191 18.1679 4.72147 18.1772 4.71102 18.1865C4.70265 18.1939 4.69429 18.2013 4.68619 18.209C4.96648 18.5785 5.26797 18.9502 5.59066 19.3241C7.01196 17.8436 8.5599 16.4911 10.2167 15.2823C10.4333 13.2372 10.8258 11.2149 11.3898 9.23784C7.02058 8.38922 3.78935 9.00098 2.68842 10.9174C2.23685 11.6992 2.1474 12.6719 2.41509 13.8116ZM2.68776 29.4619C1.58981 27.5485 2.67716 24.4318 5.59232 21.0539C7.01318 22.535 8.56067 23.888 10.217 25.0974C10.4334 27.1424 10.8258 29.1646 11.3898 31.1415C7.02024 31.9892 3.78902 31.3777 2.68842 29.4619H2.68776ZM22.5381 37.0141C23.0982 37.3888 23.8439 37.314 24.319 36.8354C24.5826 36.5699 24.7306 36.2103 24.7305 35.8354C24.7304 35.1596 24.2548 34.578 23.5946 34.4466C22.9344 34.3151 22.2737 34.6703 22.0167 35.2949C21.7597 35.9194 21.978 36.6393 22.5381 37.0141ZM23.3236 33.2583C22.3266 33.2588 21.42 33.839 20.9987 34.7464C20.5772 35.6543 20.7177 36.7252 21.3592 37.4924C20.4978 38.3164 19.6006 38.7349 18.6868 38.7349C16.4876 38.7349 14.3424 36.2303 12.884 32.0068C14.8721 31.5106 16.8137 30.8428 18.6872 30.0108C20.5609 30.8429 22.5027 31.5107 24.491 32.0068C24.3287 32.4742 24.1597 32.9216 23.9828 33.3458C23.7678 33.2881 23.5462 33.2587 23.3236 33.2583ZM25.9822 31.1415C30.3515 31.9902 33.5827 31.3781 34.6836 29.4619H34.682C35.7806 27.5485 34.6932 24.4318 31.7781 21.0539C30.3579 22.5348 28.8111 23.8877 27.1554 25.0971C26.9388 27.1421 26.5463 29.1645 25.9822 31.1415Z" fill="white"/>
</g>
</svg>
